<svg xmlns="http://www.w3.org/2000/svg" width="1200" height="630" viewBox="0 0 1200 630" role="img" aria-labelledby="title desc">
  <title id="title">儿童画画班 | 马来西亚儿童美术体验课</title>
  <desc id="desc">温馨手绘风的儿童画画班分享图。</desc>
  <rect width="1200" height="630" fill="#fffaf0"/>
  <g opacity="0.55" fill="none" stroke-linecap="round" stroke-linejoin="round">
    <path d="M78 92c20 8 43 7 62-3" stroke="#ff9f8f" stroke-width="8"/>
    <path d="M982 96c36-12 74-8 106 8" stroke="#8fc7ff" stroke-width="10"/>
    <path d="M86 500c32-20 66-24 99-12" stroke="#ffd76a" stroke-width="12"/>
    <path d="M950 520c18-30 44-42 78-38" stroke="#8abf75" stroke-width="8"/>
    <path d="M204 150l16 31 34 4-25 23 7 34-32-17-30 17 6-34-25-23 35-4z" stroke="#ffd76a" stroke-width="5"/>
    <path d="M1020 166l13 25 28 4-20 19 5 28-26-14-25 14 5-28-21-19 29-4z" stroke="#111111" stroke-width="4" opacity="0.35"/>
    <circle cx="156" cy="398" r="9" stroke="#b99de6" stroke-width="7"/>
    <circle cx="1052" cy="386" r="8" stroke="#ffb3a6" stroke-width="7"/>
  </g>
  <g transform="translate(116 108)">
    <rect x="0" y="0" width="968" height="414" rx="38" fill="#ffffff" stroke="#111111" stroke-width="5"/>
    <path d="M62 98c30 10 64 10 95-2" fill="none" stroke="#ffd76a" stroke-width="14" stroke-linecap="round"/>
    <text x="62" y="150" fill="#111111" font-family="Georgia, 'Times New Roman', serif" font-size="76" font-weight="700">儿童画画班</text>
    <text x="65" y="222" fill="#4f4f4f" font-family="Inter, Arial, sans-serif" font-size="34">马来西亚 4-12 岁小班画画课</text>
    <text x="65" y="278" fill="#4f4f4f" font-family="Inter, Arial, sans-serif" font-size="30">温柔引导 · 开心完成作品 · 可预约体验课</text>
    <g transform="translate(65 326)">
      <rect width="180" height="58" rx="29" fill="#111111"/>
      <text x="90" y="38" text-anchor="middle" fill="#ffffff" font-family="Inter, Arial, sans-serif" font-size="24" font-weight="700">预约体验课</text>
    </g>
    <g transform="translate(682 82)">
      <path d="M118 0c-66 0-120 50-120 112 0 52 40 101 96 101h25c14 0 22 15 14 27-5 9 1 19 12 17 56-6 95-49 95-110C240 66 185 0 118 0Z" fill="#fff7dc" stroke="#111111" stroke-width="8" stroke-linecap="round" stroke-linejoin="round"/>
      <circle cx="65" cy="92" r="22" fill="#ff9f8f"/>
      <circle cx="126" cy="70" r="22" fill="#ffd76a"/>
      <circle cx="172" cy="130" r="22" fill="#73bdf4"/>
      <path d="M68 184c35 13 77 11 116-7" fill="none" stroke="#8abf75" stroke-width="10" stroke-linecap="round"/>
    </g>
  </g>
</svg>
